<?xml version="1.0" standalone="no"?><!DOCTYPE svg PUBLIC "-//W3C//DTD SVG 1.1//EN" "http://www.w3.org/Graphics/SVG/1.1/DTD/svg11.dtd"><svg t="1780496394450" class="icon" viewBox="0 0 1024 1024" version="1.1" xmlns="http://www.w3.org/2000/svg" p-id="21347" xmlns:xlink="http://www.w3.org/1999/xlink" width="64" height="64"><path d="M878.47936 143.36H140.544c-21.99552 0-40.63232 18.47296-40.63232 41.24672v532.02944A40.87808 40.87808 0 0 0 140.544 757.76h328.00768v81.92h-163.84v81.92h409.6v-81.92h-163.84v-81.92h328.00768c21.99552 0 40.63232-18.47296 40.63232-41.24672V184.60672c0-22.85568-18.18624-41.24672-40.63232-41.24672zM676.94592 487.36256c0 37.3248-18.65728 72.17152-49.70496 92.86656l-117.72928 78.4896-117.72928-78.4896a111.59552 111.59552 0 0 1-49.70496-92.84608V301.568c0-8.71424 6.05184-16.27136 14.56128-18.15552l152.87296-33.97632 152.86272 33.97632a18.61632 18.61632 0 0 1 14.57152 18.15552v185.79456z" fill="#2c2c2c" p-id="21348"></path><path d="M509.51168 361.0624a37.20192 37.20192 0 0 0-18.59584 69.43744v79.40096h37.21216l0.02048-79.40096a37.21216 37.21216 0 0 0-18.6368-69.43744z" fill="#2c2c2c" p-id="21349"></path></svg>