<?xml version="1.0" standalone="no"?><!DOCTYPE svg PUBLIC "-//W3C//DTD SVG 1.1//EN" "http://www.w3.org/Graphics/SVG/1.1/DTD/svg11.dtd"><svg t="1780497841697" class="icon" viewBox="0 0 1024 1024" version="1.1" xmlns="http://www.w3.org/2000/svg" p-id="41085" xmlns:xlink="http://www.w3.org/1999/xlink" width="64" height="64"><path d="M128 85.333333c-46.933333 0-85.333333 38.4-85.333333 85.333334v512a85.333333 85.333333 0 0 0 85.333333 85.333333h298.666667v85.333333H341.333333v85.333334h341.333334v-85.333334h-85.333334v-85.333333h298.666667c46.933333 0 85.333333-38.4 85.333333-85.333333V170.666667c0-46.933333-38.4-85.333333-85.333333-85.333334M128 170.666667h768v512H128M640 213.333333l-149.333333 149.333334L640 512l59.733333-59.733333-89.6-89.6 89.6-89.6M384 341.333333L324.266667 401.066667l89.6 89.6-89.6 89.6L384 640l149.333333-149.333333" p-id="41086"></path></svg>